<svg xmlns="http://www.w3.org/2000/svg" width="375" viewBox="0 0 375 375" height="375" version="1.0"><defs><clipPath id="a"><path d="M 137 76.703125 L 213 76.703125 L 213 172 L 137 172 Z M 137 76.703125"/></clipPath><clipPath id="b"><path d="M 5 155 L 218 155 L 218 297.953125 L 5 297.953125 Z M 5 155"/></clipPath><clipPath id="c"><path d="M 157 155 L 370 155 L 370 297.953125 L 157 297.953125 Z M 157 155"/></clipPath></defs><g clip-path="url(#a)"><path fill="#EAC435" d="M 187.113281 171.066406 C 182.628906 171.066406 178.929688 167.515625 178.769531 163.003906 C 178.511719 155.167969 178.625 141.074219 182.210938 134.792969 C 184.25 131.230469 186.808594 128.210938 189.042969 125.546875 C 193.113281 120.714844 195.425781 117.792969 195.425781 113.96875 C 195.425781 102.585938 186.164062 93.339844 174.765625 93.339844 C 163.378906 93.339844 154.117188 102.585938 154.117188 113.96875 C 154.117188 118.5625 150.386719 122.304688 145.769531 122.304688 C 141.15625 122.304688 137.425781 118.5625 137.425781 113.96875 C 137.425781 93.402344 154.179688 76.671875 174.765625 76.671875 C 195.363281 76.671875 212.121094 93.402344 212.121094 113.96875 C 212.121094 124.054688 206.410156 130.828125 201.828125 136.273438 C 199.882812 138.566406 198.046875 140.75 196.761719 142.96875 C 195.8125 145.246094 195.1875 154.480469 195.460938 162.457031 C 195.605469 167.066406 192.003906 170.921875 187.386719 171.066406 L 187.113281 171.066406"/></g><g clip-path="url(#b)"><path fill="#EAC435" d="M 215.320312 181.597656 C 213.921875 183.265625 212.023438 184.246094 210.011719 184.503906 C 208.628906 183.15625 207.183594 181.839844 205.6875 180.570312 C 200.671875 176.363281 196.472656 173.890625 192.242188 172.800781 C 191.101562 172.316406 189.832031 172.109375 188.03125 172.109375 L 188.015625 172.109375 C 187.820312 172.109375 187.613281 172.109375 187.417969 172.140625 C 185.78125 172.140625 184.171875 172.382812 182.578125 172.800781 C 178.367188 173.890625 174.183594 176.347656 169.152344 180.570312 C 167.640625 181.839844 166.210938 183.15625 164.808594 184.503906 C 159.96875 189.191406 155.675781 194.363281 151.175781 199.820312 C 144.742188 207.542969 138.101562 215.554688 129.59375 222.363281 C 117.644531 231.917969 104.347656 238.773438 91.5 245.417969 L 86.53125 247.988281 C 71.671875 255.710938 56.734375 263.804688 43.882812 270.773438 C 42.484375 271.558594 41.007812 272.328125 39.527344 273.101562 C 29.539062 278.300781 24.21875 281.753906 22.496094 285.769531 C 22.304688 285.960938 22.09375 286.136719 21.902344 286.3125 C 17.609375 290.039062 13.378906 293.828125 9.039062 297.488281 C 8.957031 297.570312 8.878906 297.648438 8.78125 297.714844 C 8.523438 297.890625 8.21875 297.988281 7.878906 297.988281 C 7.238281 297.988281 6.691406 297.617188 6.433594 297.085938 C 6.386719 296.910156 6.339844 296.75 6.289062 296.574219 C 0.0195312 274.882812 19.8125 264.589844 31.792969 258.328125 C 33.207031 257.605469 34.589844 256.882812 35.925781 256.160156 C 48.804688 249.144531 63.839844 241.003906 78.8125 233.183594 L 83.8125 230.617188 C 96.5 224.066406 108.496094 217.882812 119.15625 209.34375 C 126.347656 203.59375 132.167969 196.59375 138.308594 189.175781 C 144.339844 181.917969 150.5625 174.4375 158.378906 167.835938 C 163.171875 163.824219 169.25 159.359375 177 157.082031 C 180.183594 156.117188 183.65625 155.507812 187.417969 155.476562 C 187.613281 155.425781 187.820312 155.425781 188.015625 155.425781 L 188.03125 155.425781 C 191.90625 155.425781 195.089844 156.070312 197.792969 157.082031 C 203.113281 159.039062 206.605469 162.507812 209.773438 165.671875 C 211.15625 167.066406 212.585938 168.511719 214.242188 169.859375 C 217.78125 172.800781 218.261719 178.050781 215.320312 181.597656"/></g><g clip-path="url(#c)"><path fill="#EAC435" d="M 368.519531 296.671875 C 368.453125 296.976562 368.308594 297.230469 368.101562 297.457031 C 368.019531 297.519531 367.941406 297.617188 367.84375 297.664062 C 367.585938 297.859375 367.28125 297.953125 366.941406 297.953125 C 366.539062 297.953125 366.171875 297.808594 365.898438 297.570312 C 361.523438 293.890625 357.261719 290.085938 352.9375 286.3125 C 352.742188 286.136719 352.535156 285.960938 352.339844 285.769531 C 350.621094 281.753906 345.296875 278.300781 335.3125 273.101562 C 333.832031 272.328125 332.355469 271.558594 330.953125 270.773438 C 318.105469 263.804688 303.167969 255.710938 288.308594 247.988281 L 283.339844 245.417969 C 270.492188 238.773438 257.210938 231.917969 245.246094 222.363281 C 236.738281 215.554688 230.097656 207.542969 223.679688 199.820312 C 219.164062 194.363281 214.867188 189.191406 210.027344 184.503906 C 208.628906 183.15625 207.199219 181.839844 205.6875 180.570312 C 200.671875 176.347656 196.472656 173.890625 192.261719 172.800781 C 190.667969 172.382812 189.058594 172.140625 187.417969 172.140625 C 187.226562 172.109375 187.019531 172.109375 186.824219 172.109375 L 186.808594 172.109375 C 185.023438 172.109375 183.738281 172.316406 182.59375 172.800781 C 178.367188 173.890625 174.167969 176.363281 169.167969 180.570312 C 167.65625 181.839844 166.226562 183.15625 164.828125 184.503906 C 162.816406 184.246094 160.917969 183.265625 159.519531 181.597656 C 156.578125 178.050781 157.058594 172.800781 160.613281 169.859375 C 162.253906 168.511719 163.699219 167.066406 165.066406 165.671875 C 168.234375 162.507812 171.726562 159.039062 177.046875 157.082031 C 179.765625 156.070312 182.933594 155.425781 186.808594 155.425781 L 186.824219 155.425781 C 187.019531 155.425781 187.226562 155.425781 187.417969 155.472656 C 191.199219 155.507812 194.65625 156.117188 197.839844 157.082031 C 205.589844 159.359375 211.683594 163.824219 216.460938 167.835938 C 224.277344 174.4375 230.5 181.917969 236.53125 189.175781 C 242.6875 196.59375 248.492188 203.59375 255.679688 209.34375 C 266.34375 217.882812 278.339844 224.066406 291.027344 230.617188 L 296.027344 233.183594 C 311.015625 241.003906 326.035156 249.144531 338.914062 256.160156 C 340.25 256.882812 341.632812 257.605469 343.046875 258.328125 C 355.042969 264.589844 374.871094 274.898438 368.519531 296.671875"/></g><path fill="#EAC435" d="M 366.460938 281.480469 L 10.519531 281.480469 L 10.519531 293.988281 L 366.460938 293.988281 L 366.460938 281.480469"/><path fill="#FFF" d="M 185.667969 156.40625 L 176.355469 155.21875 L 185.683594 153.996094 L 186.535156 140.894531 L 187.308594 154.03125 L 196.246094 155.21875 L 187.273438 156.4375 L 186.292969 169.28125 L 185.667969 156.40625"/><path fill="#FFF" d="M 193.882812 164.386719 L 189.847656 163.871094 L 193.898438 163.34375 L 194.269531 157.660156 L 194.609375 163.359375 L 198.484375 163.871094 L 194.589844 164.402344 L 194.171875 169.972656 L 193.882812 164.386719"/></svg>